<svg xmlns="http://www.w3.org/2000/svg" width="600" height="600" viewBox="0 0 600 600">
  <title>Shopping Instagram highlights Icon</title>
  <g>
    <rect width="600" height="600" fill="#ffebe6"/>
    <g>
      <g>
        <path d="M520,286.979c6.85-10.392,13.384-28.053-2.843-46.281a15.324,15.324,0,0,0-11.452-5H87.692a15.327,15.327,0,0,0-11.452,5c-16.226,18.228-9.693,35.889-2.842,46.281,3.559,5.4,3.824,12.5-.075,17.656-12.779,16.906-5.985,34.6.587,45.173a15.262,15.262,0,0,1-.884,17.642c-13.6,16.812-4.116,32.891,2.794,41.022a15.569,15.569,0,0,0,11.888,5.507H505.692a15.569,15.569,0,0,0,11.888-5.507c6.91-8.131,16.393-24.21,2.793-41.022a15.264,15.264,0,0,1-.883-17.642c6.571-10.573,13.365-28.267.586-45.173C516.178,299.477,516.443,292.377,520,286.979Z" fill="#7c84e7"/>
        <g>
          <g>
            <path d="M121.832,384.939c.561-15.6,4.091-107.7,13.843-115.985s27.306-3.9,32.182,0,28.28,76.553,30.718,73.14,7.151-71.044,13.49-75.432,24.867-2.837,26.817,4.92S233.2,379.151,228.807,384.515s-32.67,7.314-39.5,3.9-30.794-59-30.756-53.636-2.4,50.71-7.277,54.611S121.642,390.238,121.832,384.939Z" fill="#505daa"/>
            <path d="M271.117,267.392c-5.458,5.375-18.165,116.783-13.12,121.256s62.064,1.988,67.11,0,4.542-21.866,2.523-24.848-36.835-2.981-36.835-2.981l2.095-20.177s33.6,1.988,36.195-1.988,1.443-22.859,0-24.847-32.728-3.976-32.728-3.976l1.58-17.389s28.437,1.768,31.506-2.7,5.012-19.059,2.119-21.4C326.752,264.456,276.667,261.926,271.117,267.392Z" fill="#505daa"/>
            <path d="M479.591,268.73c1.93,2.294-8.789,103.992-12.946,113.968s-28.231,11-33.677,3.737c-9.683-12.909-17.864-43.324-17.864-43.324s-11.617,31.624-24.849,42.92c-8.352,7.13-35.237,6.25-38.562.846s7.715-119.73,10.624-121.75,23.1-.287,25.037,2.294-2.257,70.523-2.257,70.523,24.249-66.6,29.413-68.849,14.846-1.284,17.105,1.944,11.8,62.543,11.8,62.543,11.069-64.87,13.651-66.806S477.616,266.383,479.591,268.73Z" fill="#505daa"/>
          </g>
          <g>
            <path d="M113.579,379.22c.561-15.6,4.092-107.7,13.844-115.984s27.305-3.9,32.181,0,28.281,76.553,30.719,73.14,7.15-71.044,13.489-75.433,24.867-2.836,26.818,4.921S224.942,373.433,220.554,378.8s-32.669,7.314-39.5,3.9-30.794-59-30.756-53.636-2.4,50.71-7.276,54.611S113.389,384.52,113.579,379.22Z" fill="#b7ede7"/>
            <path d="M262.864,261.674c-5.458,5.375-18.165,116.783-13.119,121.256s62.064,1.987,67.109,0,4.542-21.866,2.523-24.848-36.834-2.982-36.834-2.982l2.094-20.176s33.6,1.988,36.195-1.988,1.443-22.859,0-24.847-32.728-3.976-32.728-3.976l1.58-17.389s28.437,1.768,31.506-2.7,5.012-19.059,2.119-21.4C318.5,258.738,268.414,256.207,262.864,261.674Z" fill="#b7ede7"/>
            <path d="M471.338,263.012c1.93,2.293-8.789,103.992-12.946,113.968s-28.23,11-33.677,3.737c-9.682-12.91-17.864-43.325-17.864-43.325S395.235,369.017,382,380.313c-8.352,7.13-35.237,6.25-38.562.846s7.715-119.73,10.624-121.75,23.1-.288,25.037,2.294-2.257,70.523-2.257,70.523,24.249-66.6,29.413-68.85,14.846-1.283,17.105,1.945,11.8,62.543,11.8,62.543,11.069-64.87,13.651-66.806S469.363,260.665,471.338,263.012Z" fill="#b7ede7"/>
          </g>
        </g>
      </g>
      <path d="M438.276,186.021c-4.691,29.322-31.081,31.667-31.081,31.667,26.976,9.384,31.081,49.261,31.081,49.261s4.1-39.877,31.081-49.261C469.357,217.688,442.967,215.343,438.276,186.021Z" fill="#ffc736"/>
      <path d="M510.155,263.377c-3.582,22.39-23.733,24.181-23.733,24.181,20.6,7.165,23.733,37.616,23.733,37.616s3.135-30.451,23.734-37.616C533.889,287.558,513.738,285.767,510.155,263.377Z" fill="#ffc736"/>
    </g>
  </g>
</svg>
